<svg xmlns="http://www.w3.org/2000/svg" id="Livello_2" data-name="Livello 2" viewBox="0 0 208.91 401.11" fill="white">
  <g id="Livello_1-2" data-name="Livello 1">
    <g>
      <path d="m104.47,211.96c-52.23,0-94.58,42.34-94.58,94.58s42.34,94.58,94.58,94.58,94.55-42.34,94.55-94.58-42.34-94.58-94.55-94.58Zm-2.7,164.91c6.01-2.13,11.93-3.4,17.7-5.64,17.13-5.8,31.71-15.74,44.51-28.73-5.96,26.16-34.97,39.91-62.22,34.37Z"/>
      <polygon points="208.66 104.21 104.47 0 .23 104.24 104.46 70.33 208.66 104.21"/>
      <path d="m104.47,80.69C70.31,90.3,0,107.52,0,107.52l104.47,104.44,104.44-104.44-104.44-26.83Z"/>
    </g>
  </g>
</svg>