<svg width="851" height="421" viewBox="0 0 851 421" fill="none" xmlns="http://www.w3.org/2000/svg">
<path d="M296.147 175.43V140.521H317.215V144.271H300.374V156.066H316.124V159.816H300.374V171.68H317.488V175.43H296.147ZM352.517 140.521V175.43H348.426L329.403 148.021H329.062V175.43H324.835V140.521H328.926L348.017 167.998H348.357V140.521H352.517ZM359.066 144.271V140.521H385.248V144.271H374.271V175.43H370.044V144.271H359.066ZM391.772 175.43V140.521H412.84V144.271H395.999V156.066H411.749V159.816H395.999V171.68H413.113V175.43H391.772ZM420.46 175.43V140.521H432.255C434.982 140.521 437.221 140.987 438.971 141.919C440.721 142.839 442.017 144.106 442.857 145.72C443.698 147.333 444.119 149.169 444.119 151.225C444.119 153.282 443.698 155.106 442.857 156.697C442.017 158.288 440.727 159.538 438.988 160.447C437.249 161.345 435.028 161.794 432.323 161.794H422.778V157.975H432.187C434.051 157.975 435.551 157.703 436.687 157.157C437.835 156.612 438.664 155.839 439.176 154.839C439.698 153.828 439.96 152.623 439.96 151.225C439.96 149.828 439.698 148.606 439.176 147.561C438.653 146.515 437.818 145.708 436.67 145.14C435.522 144.561 434.005 144.271 432.119 144.271H424.687V175.43H420.46ZM436.892 159.748L445.482 175.43H440.573L432.119 159.748H436.892ZM451.163 175.43V140.521H462.958C465.697 140.521 467.936 141.015 469.674 142.004C471.424 142.981 472.72 144.305 473.561 145.975C474.401 147.646 474.822 149.51 474.822 151.566C474.822 153.623 474.401 155.493 473.561 157.174C472.731 158.856 471.447 160.197 469.708 161.197C467.97 162.186 465.742 162.68 463.026 162.68H454.572V158.93H462.89C464.765 158.93 466.271 158.606 467.407 157.958C468.544 157.311 469.367 156.436 469.879 155.333C470.401 154.22 470.663 152.964 470.663 151.566C470.663 150.169 470.401 148.919 469.879 147.816C469.367 146.714 468.538 145.85 467.39 145.225C466.242 144.589 464.72 144.271 462.822 144.271H455.39V175.43H451.163ZM481.632 175.43V140.521H493.427C496.154 140.521 498.393 140.987 500.143 141.919C501.893 142.839 503.188 144.106 504.029 145.72C504.87 147.333 505.291 149.169 505.291 151.225C505.291 153.282 504.87 155.106 504.029 156.697C503.188 158.288 501.899 159.538 500.16 160.447C498.421 161.345 496.2 161.794 493.495 161.794H483.95V157.975H493.359C495.222 157.975 496.722 157.703 497.859 157.157C499.007 156.612 499.836 155.839 500.347 154.839C500.87 153.828 501.132 152.623 501.132 151.225C501.132 149.828 500.87 148.606 500.347 147.561C499.825 146.515 498.99 145.708 497.842 145.14C496.694 144.561 495.177 144.271 493.291 144.271H485.859V175.43H481.632ZM498.063 159.748L506.654 175.43H501.745L493.291 159.748H498.063ZM516.562 140.521V175.43H512.335V140.521H516.562ZM544.129 149.248C543.924 147.521 543.095 146.18 541.64 145.225C540.186 144.271 538.401 143.794 536.288 143.794C534.742 143.794 533.39 144.044 532.231 144.544C531.083 145.044 530.186 145.731 529.538 146.606C528.901 147.481 528.583 148.475 528.583 149.589C528.583 150.521 528.805 151.322 529.248 151.993C529.703 152.652 530.282 153.203 530.987 153.646C531.691 154.078 532.43 154.436 533.203 154.72C533.975 154.993 534.686 155.214 535.333 155.385L538.879 156.339C539.788 156.578 540.799 156.907 541.913 157.328C543.038 157.748 544.112 158.322 545.134 159.049C546.169 159.765 547.021 160.686 547.691 161.811C548.362 162.936 548.697 164.316 548.697 165.953C548.697 167.839 548.203 169.544 547.214 171.066C546.237 172.589 544.805 173.799 542.919 174.697C541.044 175.595 538.765 176.044 536.083 176.044C533.583 176.044 531.419 175.64 529.589 174.833C527.771 174.027 526.339 172.902 525.294 171.458C524.259 170.015 523.674 168.339 523.538 166.43H527.901C528.015 167.748 528.458 168.839 529.231 169.703C530.015 170.555 531.004 171.191 532.197 171.612C533.401 172.021 534.697 172.225 536.083 172.225C537.697 172.225 539.146 171.964 540.43 171.441C541.714 170.907 542.731 170.169 543.481 169.225C544.231 168.271 544.606 167.157 544.606 165.885C544.606 164.725 544.282 163.782 543.634 163.055C542.987 162.328 542.134 161.737 541.078 161.282C540.021 160.828 538.879 160.43 537.651 160.089L533.356 158.862C530.629 158.078 528.47 156.958 526.879 155.504C525.288 154.049 524.492 152.146 524.492 149.794C524.492 147.839 525.021 146.135 526.078 144.68C527.146 143.214 528.578 142.078 530.373 141.271C532.18 140.453 534.197 140.044 536.424 140.044C538.674 140.044 540.674 140.447 542.424 141.254C544.174 142.049 545.561 143.14 546.583 144.527C547.617 145.913 548.163 147.487 548.22 149.248H544.129ZM555.647 175.43V140.521H576.715V144.271H559.874V156.066H575.624V159.816H559.874V171.68H576.988V175.43H555.647Z" fill="#166DB4"/>
<path d="M533.778 313.43H529.346L542.165 278.521H546.528L559.346 313.43H554.915L544.483 284.044H544.21L533.778 313.43ZM535.415 299.794H553.278V303.544H535.415V299.794ZM564.784 313.43V278.521H569.011V309.68H585.238V313.43H564.784ZM591.784 313.43V278.521H596.011V309.68H612.238V313.43H591.784ZM623.011 278.521V313.43H618.784V278.521H623.011ZM632.919 313.43H628.487L641.305 278.521H645.669L658.487 313.43H654.055L643.623 284.044H643.351L632.919 313.43ZM634.555 299.794H652.419V303.544H634.555V299.794ZM691.606 278.521V313.43H687.515L668.493 286.021H668.152V313.43H663.925V278.521H668.015L687.106 305.998H687.447V278.521H691.606ZM728.156 289.43H723.929C723.679 288.214 723.241 287.146 722.616 286.225C722.003 285.305 721.253 284.532 720.366 283.907C719.491 283.271 718.52 282.794 717.452 282.475C716.383 282.157 715.27 281.998 714.111 281.998C711.997 281.998 710.082 282.532 708.366 283.6C706.662 284.669 705.304 286.243 704.292 288.322C703.292 290.402 702.792 292.953 702.792 295.975C702.792 298.998 703.292 301.549 704.292 303.629C705.304 305.708 706.662 307.282 708.366 308.35C710.082 309.419 711.997 309.953 714.111 309.953C715.27 309.953 716.383 309.794 717.452 309.475C718.52 309.157 719.491 308.686 720.366 308.061C721.253 307.424 722.003 306.646 722.616 305.725C723.241 304.794 723.679 303.725 723.929 302.521H728.156C727.838 304.305 727.258 305.902 726.417 307.311C725.577 308.72 724.531 309.919 723.281 310.907C722.031 311.885 720.628 312.629 719.071 313.14C717.525 313.652 715.872 313.907 714.111 313.907C711.133 313.907 708.486 313.18 706.167 311.725C703.849 310.271 702.025 308.203 700.696 305.521C699.366 302.839 698.702 299.657 698.702 295.975C698.702 292.294 699.366 289.112 700.696 286.43C702.025 283.748 703.849 281.68 706.167 280.225C708.486 278.771 711.133 278.044 714.111 278.044C715.872 278.044 717.525 278.299 719.071 278.811C720.628 279.322 722.031 280.072 723.281 281.061C724.531 282.038 725.577 283.231 726.417 284.64C727.258 286.038 727.838 287.635 728.156 289.43ZM734.987 313.43V278.521H756.055V282.271H739.214V294.066H754.964V297.816H739.214V309.68H756.328V313.43H734.987Z" fill="#126DB6"/>
<path d="M477.46 203.81H487.5V257.03H477.46V232.85H433.89V257.03H423.84V203.81H433.89V224.99H477.46V203.81Z" fill="url(#paint0_linear_197_2351)"/>
<path d="M497.33 203.81H552.08V211.68H507.4V224.99H549.82V232.85H507.4V249.18H552.08V257.03H497.33V203.81Z" fill="url(#paint1_linear_197_2351)"/>
<path d="M750.131 203.81H760.171V244.2C760.171 251.83 757.691 257.03 745.591 257.03H710.431C698.331 257.03 693.721 251.83 693.721 244.2V203.81H703.771V244.27C703.771 247.43 705.891 249.18 710.431 249.18H743.471C748.001 249.18 750.131 247.43 750.131 244.27V203.81Z" fill="url(#paint2_linear_197_2351)"/>
<path fill-rule="evenodd" clip-rule="evenodd" d="M622.551 216.67V220.45C622.551 227.32 618.861 232.24 609.411 233.14L621.961 257.03H611.211L598.731 233.3H570.681V257.03H560.641V203.81H605.841C617.941 203.81 622.551 209.04 622.551 216.67ZM612.511 216.6C612.511 213.41 610.381 211.68 605.841 211.68H570.681V225.43H605.841C610.381 225.43 612.511 223.69 612.511 220.52V216.6Z" fill="url(#paint3_linear_197_2351)"/>
<path d="M352.01 203.81H417.11V211.68H389.96V257.03H379.91V211.68H352.01V203.81Z" fill="url(#paint4_linear_197_2351)"/>
<path d="M291.891 203.81H346.641V211.68H301.961V224.99H344.371V232.85H301.961V249.18H346.641V257.03H291.891V203.81Z" fill="url(#paint5_linear_197_2351)"/>
<path d="M630.65 203.81H685.38V211.68H640.7V224.99H683.11V232.85H640.7V249.18H685.38V257.03H630.65V203.81Z" fill="url(#paint6_linear_197_2351)"/>
<path d="M850.841 203.81V257.03H841.531V219.76L814.471 257.03H806.231L779.081 219.83V257.03H769.791V203.81H779.171L810.761 247.29L842.221 203.81H850.841Z" fill="url(#paint7_linear_197_2351)"/>
<path d="M121.62 420.2L0 273.87L121.62 327.83V420.2Z" fill="#00ACEB"/>
<path d="M254.541 275.82L128.391 418.29V328.16L254.541 275.82Z" fill="#0C6CB0"/>
<path d="M1.53906 218.13L46.9091 200.7L126.079 236.47L206.509 203.76L252.999 221.78L126.079 273.87L1.53906 218.13Z" fill="#A47FAE"/>
<path d="M127.079 281.79L206.979 249.29L256.049 267.9L123.879 321.66L1.53906 267.9L53.8891 249.29L127.079 281.79Z" fill="#0EAA6C"/>
<path d="M121.619 0.779999V228.03L1.53906 173.37L121.619 0.779999Z" fill="#FAC41D"/>
<path d="M253.411 177.61L128.391 228.45V0L253.411 177.61Z" fill="#F6B36F"/>
<defs>
<linearGradient id="paint0_linear_197_2351" x1="423.842" y1="203.813" x2="487.502" y2="203.813" gradientUnits="userSpaceOnUse">
<stop stop-color="#8A84A7"/>
<stop offset="1" stop-color="#3D9690"/>
</linearGradient>
<linearGradient id="paint1_linear_197_2351" x1="497.332" y1="203.813" x2="552.083" y2="203.813" gradientUnits="userSpaceOnUse">
<stop stop-color="#1F9D88"/>
<stop offset="1" stop-color="#0CAA71"/>
</linearGradient>
<linearGradient id="paint2_linear_197_2351" x1="693.725" y1="203.813" x2="760.173" y2="203.813" gradientUnits="userSpaceOnUse">
<stop stop-color="#00A5E4"/>
<stop offset="1" stop-color="#0086C8"/>
</linearGradient>
<linearGradient id="paint3_linear_197_2351" x1="560.639" y1="203.813" x2="622.55" y2="203.813" gradientUnits="userSpaceOnUse">
<stop stop-color="#04AD84"/>
<stop offset="1" stop-color="#00ACC8"/>
</linearGradient>
<linearGradient id="paint4_linear_197_2351" x1="352.006" y1="203.813" x2="417.107" y2="203.813" gradientUnits="userSpaceOnUse">
<stop stop-color="#BF8E99"/>
<stop offset="1" stop-color="#9B81AC"/>
</linearGradient>
<linearGradient id="paint5_linear_197_2351" x1="291.892" y1="203.813" x2="346.643" y2="203.813" gradientUnits="userSpaceOnUse">
<stop stop-color="#E2A47F"/>
<stop offset="1" stop-color="#CB9691"/>
</linearGradient>
<linearGradient id="paint6_linear_197_2351" x1="630.655" y1="203.813" x2="685.383" y2="203.813" gradientUnits="userSpaceOnUse">
<stop stop-color="#00AED6"/>
<stop offset="1" stop-color="#00ABEA"/>
</linearGradient>
<linearGradient id="paint7_linear_197_2351" x1="769.791" y1="203.813" x2="850.843" y2="203.813" gradientUnits="userSpaceOnUse">
<stop stop-color="#007EC1"/>
<stop offset="1" stop-color="#0C6CB0"/>
</linearGradient>
</defs>
</svg>
