<svg width="2199" height="781" viewBox="0 0 2199 781" fill="none" xmlns="http://www.w3.org/2000/svg">
<g clip-path="url(#clip0_14275_16737)">
<path d="M420.501 502.612V516.76C420.501 529.683 409.989 540.181 397.08 540.181H382.932C370.009 540.181 359.512 529.669 359.512 516.76V502.612C359.512 489.689 370.023 479.191 382.932 479.191H397.08C410.003 479.191 420.501 489.703 420.501 502.612Z" fill="#E6E9ED" style="fill:#E6E9ED;fill:color(display-p3 0.9020 0.9137 0.9294);fill-opacity:1;"/>
<path d="M420.515 396.807V382.328C420.515 369.832 410.375 359.693 397.88 359.693H382.174C369.679 359.693 359.539 369.832 359.539 382.328V396.807C359.539 409.303 349.4 419.442 336.904 419.442H322.425C309.929 419.442 299.79 429.582 299.79 442.077V457.782C299.79 470.278 309.929 480.418 322.425 480.418H338.13C350.626 480.418 360.765 470.278 360.765 457.782V443.303C360.765 430.808 370.905 420.668 383.4 420.668H396.653C409.149 420.668 419.288 430.808 419.288 443.303V457.782C419.288 470.278 429.428 480.418 441.923 480.418H457.629C470.124 480.418 480.264 470.278 480.264 457.782V442.077C480.264 429.582 470.124 419.442 457.629 419.442H443.15C430.654 419.442 420.515 409.303 420.515 396.807Z" fill="#E6E9ED" style="fill:#E6E9ED;fill:color(display-p3 0.9020 0.9137 0.9294);fill-opacity:1;"/>
<path d="M540.027 382.218V398.157C540.027 410.598 529.942 420.682 517.502 420.682H501.562C489.122 420.682 479.038 410.598 479.038 398.157V383.444C479.038 371.003 468.953 360.919 456.513 360.919H441.813C429.373 360.919 419.288 350.834 419.288 338.394V323.695C419.288 311.254 409.204 301.17 396.764 301.17H383.29C370.85 301.17 360.765 311.254 360.765 323.695V338.394C360.765 350.834 350.681 360.919 338.24 360.919H323.541C311.101 360.919 301.016 371.003 301.016 383.444V398.157C301.016 410.598 290.932 420.682 278.491 420.682H262.552C250.111 420.682 240.027 410.598 240.027 398.157V382.218C240.027 369.777 250.111 359.693 262.552 359.693H277.251C289.692 359.693 299.776 349.608 299.776 337.168V322.468C299.776 310.028 309.861 299.944 322.301 299.944H337.001C349.441 299.944 359.525 289.859 359.525 277.419V262.719C359.525 250.279 369.61 240.194 382.05 240.194H397.99C410.43 240.194 420.515 250.279 420.515 262.719V277.419C420.515 289.859 430.599 299.944 443.039 299.944H457.739C470.179 299.944 480.264 310.028 480.264 322.468V337.168C480.264 349.608 490.348 359.693 502.789 359.693H517.502C529.942 359.693 540.027 369.777 540.027 382.218Z" fill="#E6E9ED" style="fill:#E6E9ED;fill:color(display-p3 0.9020 0.9137 0.9294);fill-opacity:1;"/>
<mask id="mask0_14275_16737" style="mask-type:luminance" maskUnits="userSpaceOnUse" x="632" y="315" width="1327" height="153">
<path d="M1958.28 315.785H632.62V467.783H1958.28V315.785Z" fill="white" style="fill:white;fill-opacity:1;"/>
</mask>
<g mask="url(#mask0_14275_16737)">
<path d="M1901.47 467.783C1866.45 467.783 1842.44 443.99 1842.44 408.295C1842.44 372.6 1867.8 348.808 1901.02 348.808C1934.24 348.808 1958.26 372.6 1958.26 409.866V415.473H1873.87V416.368C1874.98 433.658 1886.88 444.197 1901.47 444.197C1912.47 444.197 1922.13 439.706 1926.4 427.362H1957.82C1951.08 454.97 1928.86 467.769 1901.47 467.769V467.783ZM1874.76 395.276H1927.73C1927.28 381.803 1916.5 371.264 1901.24 371.264C1887.11 371.264 1876.55 381.141 1874.76 395.276Z" fill="#E6E9ED" style="fill:#E6E9ED;fill:color(display-p3 0.9020 0.9137 0.9294);fill-opacity:1;"/>
<path d="M1794.64 315.785H1825.85V465.069H1794.64V315.785Z" fill="#E6E9ED" style="fill:#E6E9ED;fill:color(display-p3 0.9020 0.9137 0.9294);fill-opacity:1;"/>
<path d="M1725.7 467.783C1710.44 467.783 1696.3 460.151 1690.24 447.807H1690.02V465.317H1658.59V315.785H1690.24L1690.13 337.814L1690.02 367.448H1690.24C1695.85 355.779 1710.21 348.822 1725.7 348.822C1758.24 348.822 1778.45 373.068 1778.45 407.634C1778.45 442.2 1758.25 467.797 1725.7 467.797V467.783ZM1718.29 374.184C1701.23 374.184 1689.33 387.203 1689.11 407.4V408.75C1689.11 429.401 1701.01 442.42 1718.29 442.42C1735.56 442.42 1747.25 429.181 1747.25 407.634C1747.25 387.437 1735.12 374.184 1718.29 374.184Z" fill="#E6E9ED" style="fill:#E6E9ED;fill:color(display-p3 0.9020 0.9137 0.9294);fill-opacity:1;"/>
<path d="M1570.35 467.783C1537.81 467.783 1517.6 443.315 1517.6 407.62C1517.6 371.925 1537.8 348.808 1570.35 348.808C1585.84 348.808 1599.99 355.765 1605.59 367.434H1605.81V351.274H1637.46V465.303H1605.81V447.793H1605.59C1599.53 460.137 1585.62 467.769 1570.35 467.769V467.783ZM1577.53 442.42C1594.82 442.42 1606.71 429.401 1606.71 408.75V407.4C1606.71 387.203 1594.81 374.184 1577.53 374.184C1560.26 374.184 1548.79 387.424 1548.79 407.634C1548.79 429.181 1560.7 442.42 1577.53 442.42Z" fill="#E6E9ED" style="fill:#E6E9ED;fill:color(display-p3 0.9020 0.9137 0.9294);fill-opacity:1;"/>
<path d="M1510.63 351.067V376.885H1480.83V438.122C1480.83 438.879 1481.45 439.499 1482.21 439.499H1509.28V465.317H1481.67C1462.15 465.317 1449.13 452.077 1449.13 432.542V376.885H1427.13V351.067H1449.13V315.785H1480.85V351.067H1510.65H1510.63Z" fill="#E6E9ED" style="fill:#E6E9ED;fill:color(display-p3 0.9020 0.9137 0.9294);fill-opacity:1;"/>
<path d="M1375.03 348.822C1402.2 348.822 1417.23 367.448 1417.23 395.291V465.317H1385.58V402.014C1385.58 386.074 1377.73 376.431 1365.38 376.431C1349.45 376.431 1338.45 387.204 1338.45 407.401V465.317H1306.81V351.288H1338.45V372.394C1345.63 356.234 1358.65 348.822 1375.04 348.822H1375.03Z" fill="#E6E9ED" style="fill:#E6E9ED;fill:color(display-p3 0.9020 0.9137 0.9294);fill-opacity:1;"/>
<path d="M1283.84 351.288V465.317H1252.2V446.016C1245.02 460.826 1232.22 467.783 1216.5 467.783C1190.46 467.783 1173.41 450.273 1173.41 419.524V351.288H1205.05V414.592C1205.05 430.531 1212.69 440.175 1225.25 440.175C1241.19 440.175 1252.18 429.402 1252.18 409.205V351.288H1283.84Z" fill="#E6E9ED" style="fill:#E6E9ED;fill:color(display-p3 0.9020 0.9137 0.9294);fill-opacity:1;"/>
<path d="M1100.07 348.822C1135.99 348.822 1159.56 373.744 1159.56 408.076C1159.56 442.407 1135.99 467.784 1100.07 467.784C1064.16 467.784 1040.82 442.862 1040.82 408.076C1040.82 373.29 1064.39 348.822 1100.07 348.822ZM1100.07 373.965C1082.11 373.965 1071.35 388.334 1071.35 408.089C1071.35 427.845 1082.12 442.655 1100.07 442.655C1118.02 442.655 1129.03 428.286 1129.03 408.089C1129.03 387.893 1118.26 373.965 1100.07 373.965Z" fill="#E6E9ED" style="fill:#E6E9ED;fill:color(display-p3 0.9020 0.9137 0.9294);fill-opacity:1;"/>
<path d="M1034.46 419.979C1031.99 449.157 1010.66 467.784 978.784 467.784C943.323 467.784 919.751 442.862 919.751 408.076C919.751 373.29 943.323 348.822 978.784 348.822C1009.53 348.822 1030.86 366.112 1034 394.616H1002.8C1000.55 382.272 992.478 374.185 978.329 374.185C960.599 374.185 950.266 388.099 950.266 408.076C950.266 428.052 960.585 442.2 978.329 442.2C993.139 442.2 1001.23 433.218 1003.47 419.979H1034.46Z" fill="#E6E9ED" style="fill:#E6E9ED;fill:color(display-p3 0.9020 0.9137 0.9294);fill-opacity:1;"/>
<path d="M913.386 419.979C910.92 449.157 889.594 467.784 857.715 467.784C822.253 467.784 798.682 442.862 798.682 408.076C798.682 373.29 822.253 348.822 857.715 348.822C888.464 348.822 909.79 366.112 912.931 394.616H881.727C879.482 382.272 871.408 374.185 857.26 374.185C839.529 374.185 829.197 388.099 829.197 408.076C829.197 428.052 839.516 442.2 857.26 442.2C872.07 442.2 880.157 433.218 882.402 419.979H913.386Z" fill="#E6E9ED" style="fill:#E6E9ED;fill:color(display-p3 0.9020 0.9137 0.9294);fill-opacity:1;"/>
<path d="M761.238 465.317L749.569 434.567H681.775L670.106 465.317H632.62L694.394 315.785H737.818L798.725 465.317H761.238ZM691.873 407.62H739.457L715.665 344.771L691.873 407.62Z" fill="#E6E9ED" style="fill:#E6E9ED;fill:color(display-p3 0.9020 0.9137 0.9294);fill-opacity:1;"/>
</g>
</g>
<defs>
<clipPath id="clip0_14275_16737">
<rect width="1718.28" height="300" fill="white" style="fill:white;fill-opacity:1;" transform="translate(240 240.18)"/>
</clipPath>
</defs>
</svg>
